<svg xmlns="http://www.w3.org/2000/svg" viewBox="0 0 64 64"><defs><style>.cls-1{isolation:isolate;}.cls-2{fill:#d8d8d8;}.cls-3{fill:#f8c34e;}.cls-4{fill:#68aee1;}.cls-5{fill:#d4edfc;}.cls-6{fill:#fff594;}.cls-7{fill:#fff;}.cls-8{opacity:0.25;mix-blend-mode:multiply;}.cls-9{fill:#1d1d1b;}</style></defs><g class="cls-1"><g id="Color"><path class="cls-2" d="M49.55,42.87a18,18,0,1,1-36.08,0,16.66,16.66,0,0,1,.19-2.58,18,18,0,0,0,18-.71,18,18,0,0,0,17.83,1.61c.05.54.08,1.1.08,1.68"/><path class="cls-3" d="M31.64,39.58a18,18,0,0,1-18,.71A18,18,0,0,1,24,26.46a18,18,0,0,0,7.65,13.12"/><path class="cls-2" d="M23.91,24.79c0,.57,0,1.13.08,1.67A18,18,0,0,0,13.66,40.29,18,18,0,0,1,22,6.27,17.83,17.83,0,0,1,32.36,9.52a18,18,0,0,0-8.45,15.27"/><path class="cls-3" d="M49.47,41.19a18,18,0,0,1-17.83-1.61,18,18,0,0,0,8.25-12.7,18,18,0,0,1,9.58,14.31"/><path class="cls-4" d="M39.89,26.88a18,18,0,0,1-8.25,12.7A18,18,0,0,1,24,26.46a18,18,0,0,1,15.9.42"/><path class="cls-3" d="M40.08,24.31a16.72,16.72,0,0,1-.19,2.57A18,18,0,0,0,24,26.46c0-.54-.08-1.1-.08-1.67A18,18,0,0,1,32.36,9.52a18,18,0,0,1,7.72,14.79"/><path class="cls-2" d="M60,24.79a18.05,18.05,0,0,1-10.53,16.4,18,18,0,0,0-9.58-14.31,16.72,16.72,0,0,0,.19-2.57A18,18,0,0,0,32.36,9.52,17.79,17.79,0,0,1,42,6.75a18,18,0,0,1,18,18"/><path class="cls-5" d="M31.51,24.82a19.41,19.41,0,0,0-2,.12,17.9,17.9,0,0,1,6.34,1.95A15.15,15.15,0,0,0,36,25.38a17.83,17.83,0,0,0-4.47-.56"/><path class="cls-6" d="M39.9,26.89a17.94,17.94,0,0,1-.53,2.44,18,18,0,0,1,6,11.85,18,18,0,0,0,3.7-2.28,18,18,0,0,0-5.53-9.45,18.08,18.08,0,0,0-3.68-2.56"/><path class="cls-7" d="M46.62,33a17.77,17.77,0,0,1,2.49,5.9h0a17.91,17.91,0,0,0-2.5-5.9M39.9,26.88h0a18.08,18.08,0,0,1,3.68,2.56,18.13,18.13,0,0,0-3.68-2.57"/><path class="cls-7" d="M49.48,41.19h0c.05.55.08,1.11.08,1.68A18,18,0,0,1,43,56.78a18,18,0,0,0,6.55-13.92c0-.56,0-1.12-.07-1.67"/><path class="cls-7" d="M49.47,41.19a17.56,17.56,0,0,1-4,1.29v.38a18,18,0,0,1-16,17.92,17,17,0,0,0,2,.12,18,18,0,0,0,18-18c0-.57,0-1.13-.08-1.68"/><path class="cls-7" d="M31.42,8.9c.32.19.63.4.94.62h0a17.74,17.74,0,0,1,3.26,2.92h0a17.74,17.74,0,0,0-3.26-2.92h0c-.31-.21-.62-.42-.94-.61"/><path class="cls-7" d="M22,42.35h0m.06,0h0m0,0h0m9.54-2.77a18.24,18.24,0,0,1-2.51,1.33,19.34,19.34,0,0,0,2.51-1.32h0"/><path class="cls-6" d="M29.69,38A18,18,0,0,1,20,42.23a16.69,16.69,0,0,0,2,.12h.09a17.92,17.92,0,0,0,7-1.44,18.24,18.24,0,0,0,2.51-1.33A17.31,17.31,0,0,1,29.69,38"/><path class="cls-7" d="M22,6.27a19.6,19.6,0,0,0-2,.12,18,18,0,0,1,10.23,4.69,18.18,18.18,0,0,1,2.13-1.56c-.31-.22-.62-.43-.94-.62A18,18,0,0,0,22,6.27"/><path class="cls-6" d="M39.89,26.88a18,18,0,0,1-8.25,12.7h0a18.1,18.1,0,0,0,8.26-12.7h0"/><path class="cls-5" d="M36,25.37h0a15.15,15.15,0,0,1-.16,1.51A18,18,0,0,1,29.69,38a17.31,17.31,0,0,0,1.95,1.56,18,18,0,0,0,8.25-12.7A18.85,18.85,0,0,0,36,25.37"/><path class="cls-6" d="M32.36,9.52h0a18.18,18.18,0,0,0-2.13,1.56A18,18,0,0,1,36,24.31c0,.36,0,.71,0,1.06a18.85,18.85,0,0,1,3.91,1.51h0c.08-.52.13-1.05.16-1.59,0-.31,0-.63,0-.94v0h0a18,18,0,0,0-.29-3.22v0h0v0h0a17.93,17.93,0,0,0-4.16-8.59,17.74,17.74,0,0,0-3.26-2.92"/><path class="cls-7" d="M40.05,25.29c0,.54-.08,1.07-.16,1.59h0c.07-.52.13-1.05.15-1.59m0-1v0m-.29-3.23a18,18,0,0,1,.29,3.22h0a18,18,0,0,0-.29-3.22m0,0h0m0,0h0M32.36,9.51h0a17.74,17.74,0,0,1,3.26,2.92,18.17,18.17,0,0,0-3.26-2.93"/><path class="cls-7" d="M59.39,29.44a18.08,18.08,0,0,1-9.92,11.75,17.33,17.33,0,0,0-.36-2.29h0a17.33,17.33,0,0,1,.36,2.29A18.09,18.09,0,0,1,42,42.83l-.66,0h0l.66,0a18.09,18.09,0,0,0,7.51-1.64h0a18.09,18.09,0,0,0,9.91-11.75M42,6.74c-.31,0-.61,0-.92,0,.31,0,.61,0,.92,0a18,18,0,0,1,11.4,4.05A18,18,0,0,0,42,6.74"/><path class="cls-7" d="M49.47,41.19A18.09,18.09,0,0,1,42,42.83l-.66,0,.66,0a17.81,17.81,0,0,0,3.52-.35,17.56,17.56,0,0,0,4-1.29h0"/><path class="cls-6" d="M49.11,38.9a18,18,0,0,1-9.19,3.81c.45,0,.91.08,1.38.1l.66,0a18.09,18.09,0,0,0,7.51-1.64,17.33,17.33,0,0,0-.36-2.29"/><path class="cls-7" d="M42,6.75c-.31,0-.61,0-.92,0s-.75.05-1.12.09a18,18,0,0,1,9.2,32h0a17.33,17.33,0,0,1,.36,2.29A18,18,0,0,0,42,6.75"/></g><g id="Shadow" class="cls-8"><path class="cls-9" d="M19.21,42.86A18,18,0,0,1,34.38,25.07a18,18,0,1,0,0,35.58A18,18,0,0,1,19.21,42.86Z"/><path class="cls-9" d="M9.74,24.31A18,18,0,0,1,24.91,6.52a18,18,0,1,0,0,35.59A18,18,0,0,1,9.74,24.31Z"/><path class="cls-9" d="M29.65,24.78A18,18,0,0,1,44.83,7a18,18,0,1,0,0,35.59A18,18,0,0,1,29.65,24.78Z"/></g><g id="Line"><path class="cls-9" d="M42,5.74a18.91,18.91,0,0,0-9.58,2.61,19,19,0,1,0-19.8,32.47,19.61,19.61,0,0,0-.11,2,19,19,0,0,0,38.08,0c0-.36,0-.72,0-1.08A19,19,0,0,0,42,5.74ZM5,24.31A17,17,0,0,1,30.55,9.57a19,19,0,0,0-7.64,15.21c0,.37,0,.73.06,1.09a19.08,19.08,0,0,0-10,12.83A17,17,0,0,1,5,24.31Zm34.09,0c0,.36,0,.71,0,1.06A18.87,18.87,0,0,0,24.92,25c0-.08,0-.16,0-.24a17,17,0,0,1,7.4-14A17,17,0,0,1,39.08,24.31Zm-7.4,14a17,17,0,0,1-6.59-11.26,16.85,16.85,0,0,1,13.69.38A17.1,17.1,0,0,1,31.68,38.35Zm8.93-9.88a17.07,17.07,0,0,1,7.77,12.09,16.9,16.9,0,0,1-14.94-1A19.12,19.12,0,0,0,40.61,28.47Zm-10.78,11a16.93,16.93,0,0,1-15.06.26A17.11,17.11,0,0,1,23.21,28,19,19,0,0,0,29.83,39.45Zm18.72,3.41a17,17,0,0,1-34.08,0c0-.36,0-.7,0-1.06a19,19,0,0,0,17.09-1,18.82,18.82,0,0,0,16.93,1.88C48.54,42.71,48.55,42.78,48.55,42.86Zm1.71-3.21A19.07,19.07,0,0,0,41,26.35a19.61,19.61,0,0,0,.11-2A19,19,0,0,0,34.17,9.64a17,17,0,0,1,16.09,30Z"/></g></g></svg>